<svg width="401" height="277" viewBox="0 0 401 277" fill="none" xmlns="http://www.w3.org/2000/svg">
<path d="M330.5 138.072C330.5 211.526 270.954 271.072 197.5 271.072C124.046 271.072 64.5 211.526 64.5 138.072C64.5 64.6181 124.046 5.07196 197.5 5.07196C270.954 5.07196 330.5 64.6181 330.5 138.072Z" fill="#E9DBAA" stroke="#427490" stroke-width="10"/>
<path d="M13.3357 94.3455L26.3513 93.0556L38.3968 112.23L38.8205 112.188L47.1575 90.9937L60.1732 89.7038L45.4956 123.577L46.9755 139.686L35.3956 140.834L33.9156 124.724L13.3357 94.3455ZM78.0769 137.294C74.2797 137.67 70.9446 137.216 68.0715 135.932C65.2128 134.631 62.9175 132.656 61.1858 130.007C59.4684 127.341 58.4394 124.156 58.099 120.45C57.7572 116.729 58.1875 113.398 59.39 110.459C60.6068 107.502 62.501 105.112 65.0728 103.288C67.6587 101.448 70.8503 100.339 74.6475 99.9627C78.4448 99.5864 81.7727 100.049 84.6315 101.35C87.5045 102.634 89.7998 104.609 91.5172 107.275C93.2489 109.924 94.2857 113.109 94.6276 116.83C94.968 120.535 94.5298 123.867 93.313 126.823C92.1105 129.763 90.2163 132.153 87.6303 133.994C85.0586 135.817 81.8741 136.917 78.0769 137.294ZM77.3491 128.596C78.7299 128.459 79.8599 127.919 80.7392 126.976C81.6185 126.034 82.2399 124.784 82.6036 123.226C82.9829 121.668 83.0817 119.899 82.8999 117.921C82.7153 115.911 82.2949 114.178 81.6386 112.722C80.998 111.264 80.1602 110.159 79.1251 109.406C78.0901 108.653 76.8822 108.345 75.5014 108.482C74.0735 108.623 72.9043 109.167 71.9936 110.113C71.0987 111.057 70.4615 112.309 70.0822 113.867C69.7186 115.424 69.6291 117.208 69.8137 119.218C69.9954 121.196 70.4066 122.914 71.0472 124.372C71.7034 125.828 72.5569 126.932 73.6077 127.683C74.6741 128.433 75.9212 128.737 77.3491 128.596ZM124.064 116.289L122.176 95.728L133.661 94.5897L136.985 130.766L126.017 131.853L125.398 125.117L125.021 125.155C124.424 127.448 123.221 129.342 121.411 130.836C119.615 132.314 117.359 133.187 114.645 133.456C112.181 133.7 109.964 133.349 107.993 132.404C106.022 131.458 104.425 130.024 103.204 128.101C101.981 126.163 101.236 123.828 100.969 121.097L98.851 98.0395L110.36 96.8989L112.271 117.696C112.467 119.657 113.127 121.152 114.25 122.182C115.374 123.211 116.815 123.639 118.572 123.465C119.718 123.351 120.722 122.998 121.586 122.405C122.464 121.796 123.125 120.977 123.569 119.951C124.028 118.907 124.193 117.687 124.064 116.289ZM144.31 130.04L140.987 93.8637L152.167 92.7558L152.773 99.3505L153.149 99.3132C153.589 96.8612 154.501 94.9804 155.885 93.6708C157.267 92.3454 158.947 91.5848 160.924 91.3889C161.458 91.336 162.01 91.3208 162.582 91.3434C163.153 91.3502 163.688 91.4001 164.187 91.4933L165.107 101.503C164.54 101.369 163.805 101.291 162.901 101.27C162.012 101.247 161.222 101.27 160.532 101.339C159.167 101.474 157.963 101.902 156.921 102.623C155.893 103.327 155.115 104.252 154.587 105.398C154.073 106.526 153.882 107.812 154.015 109.257L155.82 128.9L144.31 130.04ZM182.015 77.6291L196.443 76.1993L211.426 104.851L211.99 104.795L221.486 73.7175L235.914 72.2877L240.345 120.523L229 121.648L226.278 92.0185L225.878 92.0581L216.992 122.529L209.743 123.247L195.454 94.9068L195.054 94.9465L197.791 124.74L186.446 125.865L182.015 77.6291ZM264.55 118.814C260.753 119.19 257.418 118.736 254.545 117.452C251.686 116.151 249.391 114.176 247.659 111.528C245.942 108.862 244.913 105.676 244.572 101.97C244.23 98.2489 244.661 94.9185 245.863 91.979C247.08 89.0222 248.974 86.6321 251.546 84.8086C254.132 82.9678 257.324 81.8593 261.121 81.483C264.918 81.1067 268.246 81.5691 271.105 82.8703C273.978 84.1542 276.273 86.1291 277.99 88.7951C279.722 91.4438 280.759 94.6289 281.101 98.3502C281.441 102.056 281.003 105.387 279.786 108.344C278.584 111.283 276.689 113.673 274.103 115.514C271.532 117.338 268.347 118.437 264.55 118.814ZM263.822 110.116C265.203 109.979 266.333 109.439 267.212 108.497C268.092 107.554 268.713 106.304 269.077 104.747C269.456 103.188 269.555 101.42 269.373 99.4411C269.188 97.4313 268.768 95.6983 268.112 94.2423C267.471 92.7847 266.633 91.6794 265.598 90.9263C264.563 90.1733 263.355 89.8652 261.975 90.002C260.547 90.1435 259.377 90.6872 258.467 91.6331C257.572 92.5774 256.935 93.8289 256.555 95.3875C256.192 96.9447 256.102 98.7281 256.287 100.738C256.469 102.716 256.88 104.434 257.52 105.892C258.177 107.348 259.03 108.452 260.081 109.203C261.147 109.953 262.394 110.257 263.822 110.116ZM319.228 76.1998L310.148 113.606L296.968 114.912L281.264 79.9621L293.385 78.7609L302.335 103.019L302.712 102.982L307.107 77.401L319.228 76.1998ZM326.965 111.939L323.641 75.7625L335.151 74.6219L338.474 110.799L326.965 111.939ZM329.021 70.9751C327.404 71.1353 325.967 70.739 324.707 69.7864C323.447 68.818 322.747 67.5723 322.607 66.0493C322.468 64.5419 322.93 63.1968 323.993 62.014C325.055 60.8156 326.394 60.1362 328.01 59.9761C329.642 59.8143 331.08 60.2184 332.325 61.1883C333.585 62.141 334.283 63.371 334.422 64.8784C334.562 66.4014 334.101 67.7622 333.039 68.9607C331.992 70.1419 330.652 70.8134 329.021 70.9751ZM362.762 109.081C358.98 109.456 355.648 109.033 352.765 107.814C349.896 106.577 347.597 104.642 345.867 102.009C344.151 99.3587 343.116 96.1101 342.762 92.2632C342.419 88.5262 342.857 85.1871 344.075 82.2461C345.292 79.2893 347.17 76.9007 349.71 75.0804C352.249 73.2443 355.339 72.1459 358.979 71.7851C361.553 71.5301 363.943 71.6972 366.151 72.2865C368.358 72.8758 370.311 73.8786 372.008 75.2948C373.706 76.7111 375.092 78.5305 376.167 80.7531C377.241 82.96 377.914 85.5473 378.187 88.5149L378.451 91.3883L347.03 94.5022L346.415 87.8133L367.127 85.7607C366.999 84.5375 366.608 83.475 365.955 82.5732C365.303 81.6714 364.457 81.0025 363.42 80.5666C362.397 80.1135 361.249 79.9499 359.978 80.0758C358.692 80.2033 357.565 80.6081 356.599 81.2902C355.631 81.9565 354.894 82.8138 354.389 83.8621C353.882 84.8947 353.67 86.0328 353.752 87.2763L354.377 94.083C354.513 95.559 354.922 96.8256 355.605 97.8829C356.287 98.9244 357.189 99.6986 358.312 100.205C359.436 100.712 360.735 100.892 362.21 100.746C363.23 100.645 364.142 100.412 364.948 100.047C365.754 99.6816 366.429 99.1948 366.975 98.5861C367.521 97.9775 367.906 97.258 368.131 96.4277L378.727 95.6866C378.505 98.1011 377.73 100.261 376.401 102.168C375.086 104.057 373.273 105.607 370.962 106.818C368.649 108.014 365.916 108.768 362.762 109.081ZM72.3523 218.566L54.5353 220.332L50.1042 172.096L67.8977 170.333C72.809 169.846 77.1264 170.393 80.85 171.973C84.5878 173.535 87.5876 176.027 89.8493 179.447C92.1096 182.851 93.4698 187.058 93.93 192.067C94.3915 197.091 93.8232 201.505 92.225 205.308C90.6424 209.109 88.1589 212.151 84.7745 214.436C81.3886 216.704 77.2479 218.081 72.3523 218.566ZM65.2727 209.238L70.9921 208.671C73.6909 208.404 75.9321 207.722 77.7157 206.627C79.5135 205.514 80.7958 203.873 81.5625 201.706C82.3435 199.521 82.5747 196.694 82.2559 193.224C81.9371 189.754 81.1968 187.038 80.035 185.078C78.8718 183.102 77.299 181.752 75.3168 181.03C73.3488 180.29 70.984 180.057 68.2223 180.33L62.6678 180.881L65.2727 209.238ZM113.197 215.136C110.891 215.365 108.808 215.183 106.948 214.591C105.103 213.982 103.59 212.943 102.411 211.476C101.245 209.991 100.553 208.055 100.333 205.669C100.149 203.659 100.346 201.928 100.925 200.476C101.504 199.025 102.374 197.805 103.534 196.819C104.695 195.833 106.063 195.039 107.638 194.44C109.213 193.824 110.911 193.347 112.732 193.008C114.77 192.616 116.408 192.256 117.644 191.927C118.879 191.583 119.761 191.186 120.29 190.738C120.833 190.272 121.071 189.67 121.003 188.932L120.992 188.814C120.881 187.605 120.379 186.712 119.487 186.135C118.595 185.558 117.443 185.34 116.031 185.48C114.508 185.631 113.315 186.082 112.45 186.833C111.585 187.584 111.08 188.553 110.935 189.74L100.286 190.415C100.398 188.186 101.026 186.143 102.169 184.287C103.327 182.413 105.006 180.868 107.206 179.652C109.42 178.418 112.144 177.642 115.376 177.321C117.683 177.093 119.834 177.157 121.83 177.513C123.825 177.854 125.592 178.472 127.13 179.365C128.668 180.242 129.897 181.388 130.819 182.802C131.756 184.214 132.313 185.878 132.489 187.794L134.747 212.383L123.921 213.456L123.458 208.416L123.175 208.444C122.644 209.732 121.916 210.85 120.989 211.797C120.079 212.743 118.968 213.495 117.658 214.053C116.363 214.609 114.876 214.97 113.197 215.136ZM116.059 207.247C117.298 207.125 118.389 206.763 119.332 206.163C120.29 205.561 121.027 204.79 121.542 203.852C122.056 202.898 122.259 201.832 122.151 200.654L121.835 197.216C121.521 197.421 121.136 197.618 120.678 197.806C120.236 197.992 119.746 198.175 119.208 198.355C118.671 198.535 118.116 198.701 117.544 198.853C116.972 199.005 116.423 199.146 115.897 199.278C114.83 199.558 113.929 199.916 113.193 200.354C112.473 200.79 111.936 201.318 111.581 201.94C111.241 202.544 111.107 203.238 111.179 204.023C111.288 205.217 111.796 206.085 112.701 206.63C113.621 207.172 114.741 207.378 116.059 207.247ZM158.868 173.486L159.646 181.965L136.84 184.226L136.061 175.747L158.868 173.486ZM140.042 166.606L151.552 165.465L154.626 198.933C154.691 199.64 154.854 200.202 155.114 200.62C155.388 201.021 155.753 201.293 156.21 201.438C156.665 201.567 157.199 201.602 157.811 201.541C158.25 201.498 158.71 201.412 159.189 201.286C159.682 201.142 160.052 201.026 160.297 200.938L162.802 209.08C162.268 209.291 161.509 209.564 160.526 209.899C159.559 210.233 158.388 210.499 157.013 210.699C154.326 211.092 151.983 211.008 149.984 210.445C147.999 209.865 146.422 208.818 145.253 207.301C144.101 205.784 143.427 203.798 143.234 201.346L140.042 166.606ZM178.311 208.684C176.004 208.912 173.921 208.73 172.062 208.138C170.216 207.529 168.704 206.49 167.524 205.023C166.359 203.538 165.666 201.602 165.447 199.216C165.262 197.206 165.459 195.475 166.039 194.023C166.618 192.572 167.488 191.353 168.648 190.366C169.808 189.38 171.176 188.587 172.752 187.987C174.326 187.371 176.024 186.894 177.845 186.555C179.884 186.163 181.521 185.803 182.758 185.474C183.993 185.13 184.875 184.734 185.403 184.285C185.946 183.819 186.184 183.217 186.116 182.479L186.105 182.362C185.994 181.153 185.493 180.26 184.601 179.683C183.708 179.105 182.556 178.887 181.144 179.027C179.622 179.178 178.428 179.629 177.563 180.38C176.698 181.131 176.193 182.1 176.049 183.287L165.399 183.962C165.511 181.733 166.139 179.69 167.283 177.834C168.441 175.96 170.12 174.415 172.32 173.199C174.534 171.966 177.257 171.189 180.49 170.868C182.796 170.64 184.947 170.704 186.944 171.061C188.938 171.402 190.705 172.019 192.244 172.912C193.781 173.79 195.011 174.935 195.932 176.349C196.869 177.762 197.426 179.426 197.602 181.341L199.861 205.93L189.034 207.003L188.571 201.963L188.289 201.991C187.758 203.279 187.029 204.397 186.103 205.345C185.192 206.29 184.082 207.042 182.771 207.6C181.477 208.156 179.99 208.517 178.311 208.684ZM181.172 200.795C182.412 200.672 183.503 200.31 184.445 199.71C185.403 199.108 186.14 198.338 186.656 197.399C187.17 196.445 187.373 195.379 187.264 194.202L186.949 190.763C186.635 190.968 186.249 191.165 185.791 191.353C185.349 191.539 184.86 191.723 184.322 191.903C183.784 192.083 183.229 192.249 182.658 192.4C182.086 192.552 181.537 192.694 181.01 192.825C179.943 193.105 179.042 193.464 178.307 193.901C177.587 194.337 177.049 194.865 176.695 195.487C176.354 196.091 176.22 196.785 176.292 197.571C176.402 198.764 176.909 199.633 177.814 200.177C178.735 200.719 179.854 200.925 181.172 200.795ZM206.898 205.233L202.467 156.997L213.977 155.856L215.653 174.11L215.889 174.086C216.258 172.941 216.828 171.815 217.597 170.708C218.382 169.601 219.42 168.658 220.71 167.881C222.015 167.086 223.616 166.594 225.515 166.406C228.025 166.157 230.432 166.584 232.734 167.687C235.052 168.789 237.012 170.646 238.613 173.26C240.215 175.874 241.212 179.309 241.603 183.564C241.979 187.662 241.643 191.158 240.595 194.05C239.562 196.941 238.01 199.186 235.941 200.786C233.887 202.384 231.526 203.315 228.858 203.579C227.038 203.76 225.434 203.618 224.045 203.153C222.657 202.689 221.463 202.015 220.463 201.131C219.479 200.246 218.693 199.271 218.104 198.204L217.751 198.239L218.29 204.104L206.898 205.233ZM216.511 186.027C216.689 187.974 217.104 189.644 217.755 191.037C218.421 192.429 219.285 193.476 220.347 194.179C221.423 194.865 222.66 195.138 224.056 195C225.468 194.86 226.633 194.348 227.549 193.465C228.464 192.567 229.106 191.37 229.476 189.876C229.861 188.38 229.964 186.658 229.785 184.711C229.606 182.764 229.192 181.102 228.543 179.725C227.91 178.346 227.063 177.312 226.002 176.625C224.957 175.937 223.721 175.663 222.293 175.805C220.881 175.945 219.716 176.448 218.798 177.316C217.88 178.183 217.22 179.357 216.818 180.839C216.431 182.319 216.329 184.049 216.511 186.027ZM259.541 200.634C257.234 200.862 255.151 200.68 253.292 200.088C251.447 199.479 249.934 198.44 248.754 196.973C247.589 195.488 246.896 193.552 246.677 191.166C246.492 189.156 246.69 187.425 247.269 185.973C247.848 184.522 248.718 183.303 249.878 182.316C251.038 181.33 252.406 180.537 253.982 179.937C255.556 179.321 257.254 178.844 259.076 178.505C261.114 178.113 262.751 177.753 263.988 177.424C265.223 177.08 266.105 176.684 266.633 176.235C267.177 175.769 267.414 175.167 267.346 174.429L267.336 174.312C267.224 173.103 266.723 172.21 265.831 171.633C264.938 171.055 263.786 170.837 262.374 170.977C260.852 171.128 259.658 171.579 258.793 172.33C257.928 173.081 257.423 174.05 257.279 175.237L246.629 175.912C246.741 173.683 247.369 171.64 248.513 169.784C249.671 167.91 251.35 166.365 253.55 165.149C255.764 163.916 258.487 163.139 261.72 162.818C264.026 162.59 266.178 162.654 268.174 163.011C270.168 163.352 271.935 163.969 273.474 164.862C275.011 165.74 276.241 166.885 277.162 168.299C278.1 169.712 278.656 171.376 278.832 173.291L281.091 197.88L270.264 198.953L269.801 193.913L269.519 193.941C268.988 195.229 268.259 196.347 267.333 197.295C266.422 198.24 265.312 198.992 264.001 199.55C262.707 200.106 261.22 200.467 259.541 200.634ZM262.402 192.745C263.642 192.622 264.733 192.26 265.675 191.66C266.633 191.058 267.37 190.288 267.886 189.349C268.4 188.395 268.603 187.329 268.494 186.152L268.179 182.713C267.865 182.918 267.479 183.115 267.021 183.303C266.579 183.489 266.09 183.673 265.552 183.853C265.014 184.033 264.46 184.199 263.888 184.35C263.316 184.502 262.767 184.644 262.24 184.775C261.174 185.055 260.272 185.414 259.537 185.851C258.817 186.287 258.279 186.815 257.925 187.437C257.584 188.041 257.45 188.735 257.522 189.521C257.632 190.714 258.139 191.583 259.044 192.127C259.965 192.669 261.084 192.875 262.402 192.745ZM317.382 168.924L306.84 170.254C306.661 169.511 306.302 168.874 305.762 168.341C305.221 167.792 304.543 167.392 303.728 167.14C302.927 166.871 302.017 166.787 300.997 166.888C299.663 167.02 298.55 167.4 297.658 168.027C296.781 168.652 296.392 169.42 296.492 170.329C296.541 171.037 296.88 171.621 297.508 172.082C298.152 172.541 299.249 172.852 300.8 173.015L307.888 173.644C311.56 173.977 314.349 174.858 316.253 176.285C318.173 177.711 319.263 179.742 319.521 182.378C319.733 184.861 319.194 187.093 317.903 189.074C316.628 191.055 314.783 192.679 312.366 193.949C309.948 195.203 307.122 195.99 303.89 196.31C298.728 196.821 294.558 196.165 291.382 194.341C288.221 192.499 286.264 189.81 285.511 186.272L296.853 184.862C297.225 186.156 297.969 187.097 299.084 187.683C300.198 188.27 301.572 188.483 303.204 188.321C304.678 188.175 305.854 187.781 306.729 187.14C307.604 186.498 308.008 185.722 307.94 184.809C307.849 183.994 307.428 183.379 306.678 182.962C305.925 182.529 304.783 182.246 303.251 182.113L296.833 181.537C293.147 181.237 290.337 180.287 288.401 178.689C286.463 177.074 285.375 174.885 285.137 172.12C284.899 169.703 285.353 167.575 286.498 165.734C287.642 163.878 289.372 162.375 291.689 161.227C294.006 160.078 296.797 159.342 300.06 159.019C304.956 158.534 308.91 159.179 311.924 160.957C314.936 162.718 316.755 165.374 317.382 168.924ZM343.213 192.413C339.432 192.788 336.1 192.365 333.217 191.146C330.348 189.909 328.049 187.974 326.318 185.341C324.602 182.691 323.568 179.442 323.214 175.595C322.871 171.858 323.308 168.519 324.527 165.578C325.743 162.621 327.622 160.233 330.162 158.412C332.701 156.576 335.791 155.478 339.431 155.117C342.004 154.862 344.395 155.029 346.602 155.618C348.81 156.208 350.762 157.211 352.46 158.627C354.158 160.043 355.544 161.862 356.619 164.085C357.693 166.292 358.366 168.879 358.638 171.847L358.902 174.72L327.481 177.834L326.867 171.145L347.579 169.093C347.451 167.869 347.06 166.807 346.407 165.905C345.754 165.003 344.909 164.334 343.872 163.899C342.848 163.445 341.701 163.282 340.43 163.408C339.143 163.535 338.017 163.94 337.05 164.622C336.082 165.288 335.346 166.146 334.84 167.194C334.333 168.227 334.121 169.365 334.204 170.608L334.829 177.415C334.965 178.891 335.374 180.158 336.057 181.215C336.739 182.256 337.641 183.03 338.764 183.537C339.887 184.044 341.187 184.224 342.661 184.078C343.681 183.977 344.594 183.744 345.4 183.379C346.205 183.014 346.881 182.527 347.427 181.918C347.973 181.309 348.358 180.59 348.582 179.76L359.178 179.019C358.957 181.433 358.182 183.593 356.852 185.5C355.538 187.389 353.725 188.939 351.413 190.15C349.101 191.346 346.367 192.1 343.213 192.413Z" fill="black"/>
<path d="M8.21483 99.2085L21.2305 97.9186L33.276 117.093L33.6996 117.051L42.0367 95.8567L55.0523 94.5668L40.3747 128.44L41.8546 144.549L30.2747 145.697L28.7948 129.587L8.21483 99.2085ZM72.956 142.157C69.1588 142.533 65.8237 142.079 62.9507 140.795C60.0919 139.494 57.7967 137.519 56.065 134.87C54.3475 132.204 53.3186 129.019 52.9782 125.313C52.6363 121.592 53.0666 118.261 54.2692 115.322C55.4859 112.365 57.3802 109.975 59.9519 108.151C62.5379 106.311 65.7295 105.202 69.5267 104.826C73.3239 104.449 76.6519 104.912 79.5107 106.213C82.3837 107.497 84.6789 109.472 86.3964 112.138C88.1281 114.787 89.1648 117.972 89.5067 121.693C89.8471 125.399 89.4089 128.73 88.1922 131.686C86.9897 134.626 85.0954 137.016 82.5094 138.857C79.9377 140.68 76.7532 141.78 72.956 142.157ZM72.2283 133.459C73.6091 133.322 74.7391 132.782 75.6183 131.839C76.4976 130.897 77.1191 129.647 77.4827 128.089C77.862 126.531 77.9608 124.762 77.7791 122.784C77.5944 120.774 77.174 119.041 76.5177 117.585C75.8771 116.127 75.0393 115.022 74.0043 114.269C72.9692 113.516 71.7613 113.208 70.3805 113.345C68.9526 113.486 67.7834 114.03 66.8728 114.976C65.9778 115.92 65.3407 117.172 64.9613 118.73C64.5977 120.287 64.5082 122.071 64.6928 124.081C64.8746 126.059 65.2857 127.777 65.9263 129.235C66.5826 130.691 67.4361 131.795 68.4868 132.546C69.5532 133.296 70.8004 133.6 72.2283 133.459ZM118.944 121.152L117.055 100.591L128.54 99.4528L131.864 135.629L120.896 136.716L120.277 129.98L119.9 130.018C119.304 132.311 118.1 134.205 116.29 135.699C114.494 137.177 112.238 138.05 109.524 138.319C107.06 138.563 104.843 138.212 102.872 137.267C100.901 136.321 99.3046 134.887 98.083 132.964C96.8598 131.026 96.1149 128.691 95.8483 125.96L93.7301 102.903L105.239 101.762L107.15 122.559C107.346 124.52 108.006 126.015 109.13 127.045C110.253 128.074 111.694 128.502 113.451 128.328C114.597 128.214 115.601 127.861 116.465 127.268C117.343 126.659 118.005 125.84 118.449 124.814C118.907 123.77 119.072 122.55 118.944 121.152ZM139.189 134.903L135.866 98.7268L147.046 97.6188L147.652 104.214L148.028 104.176C148.468 101.724 149.38 99.8435 150.764 98.5338C152.146 97.2085 153.826 96.4478 155.803 96.2519C156.337 96.199 156.889 96.1838 157.462 96.2064C158.032 96.2132 158.567 96.2632 159.067 96.3563L159.986 106.366C159.42 106.232 158.684 106.154 157.78 106.133C156.891 106.11 156.101 106.133 155.411 106.202C154.046 106.337 152.842 106.765 151.8 107.486C150.772 108.19 149.994 109.115 149.466 110.261C148.952 111.389 148.762 112.676 148.894 114.12L150.699 133.763L139.189 134.903ZM176.894 82.4921L191.322 81.0623L206.305 109.714L206.87 109.658L216.365 78.5805L230.793 77.1507L235.224 125.386L223.879 126.511L221.158 96.8815L220.757 96.9212L211.871 127.392L204.622 128.11L190.333 99.7699L189.933 99.8095L192.67 129.603L181.326 130.728L176.894 82.4921ZM259.429 123.677C255.632 124.053 252.297 123.599 249.424 122.315C246.565 121.014 244.27 119.039 242.538 116.391C240.821 113.725 239.792 110.539 239.451 106.833C239.11 103.112 239.54 99.7815 240.742 96.842C241.959 93.8852 243.853 91.4951 246.425 89.6716C249.011 87.8309 252.203 86.7223 256 86.346C259.797 85.9697 263.125 86.4322 265.984 87.7333C268.857 89.0172 271.152 90.9922 272.87 93.6581C274.601 96.3069 275.638 99.4919 275.98 103.213C276.32 106.919 275.882 110.25 274.665 113.207C273.463 116.146 271.569 118.536 268.983 120.377C266.411 122.201 263.226 123.301 259.429 123.677ZM258.701 114.979C260.082 114.842 261.212 114.302 262.092 113.36C262.971 112.417 263.592 111.167 263.956 109.61C264.335 108.051 264.434 106.283 264.252 104.304C264.068 102.294 263.647 100.561 262.991 99.1053C262.35 97.6477 261.513 96.5424 260.477 95.7894C259.442 95.0363 258.235 94.7282 256.854 94.8651C255.426 95.0066 254.257 95.5502 253.346 96.4961C252.451 97.4404 251.814 98.6919 251.435 100.251C251.071 101.808 250.981 103.591 251.166 105.601C251.348 107.579 251.759 109.297 252.399 110.755C253.056 112.211 253.909 113.315 254.96 114.066C256.026 114.816 257.274 115.12 258.701 114.979ZM314.107 81.0628L305.027 118.469L291.847 119.775L276.143 84.8251L288.264 83.6239L297.214 107.882L297.591 107.845L301.986 82.2641L314.107 81.0628ZM321.844 116.802L318.521 80.6255L330.03 79.4849L333.353 115.662L321.844 116.802ZM323.9 75.8381C322.284 75.9983 320.846 75.6021 319.587 74.6494C318.326 73.6811 317.626 72.4354 317.486 70.9123C317.347 69.4049 317.81 68.0599 318.873 66.8771C319.934 65.6786 321.273 64.9993 322.889 64.8391C324.521 64.6774 325.96 65.0815 327.205 66.0514C328.464 67.004 329.163 68.234 329.301 69.7414C329.441 71.2644 328.98 72.6252 327.919 73.8237C326.871 75.0049 325.532 75.6764 323.9 75.8381ZM357.641 113.944C353.859 114.319 350.527 113.896 347.644 112.677C344.775 111.44 342.476 109.505 340.746 106.872C339.03 104.222 337.995 100.973 337.642 97.1262C337.298 93.3892 337.736 90.0502 338.954 87.1091C340.171 84.1523 342.049 81.7637 344.59 79.9434C347.129 78.1073 350.218 77.0089 353.858 76.6481C356.432 76.3931 358.822 76.5603 361.03 77.1496C363.237 77.7389 365.19 78.7416 366.887 80.1579C368.585 81.5741 369.971 83.3935 371.047 85.6161C372.12 87.8231 372.793 90.4103 373.066 93.378L373.33 96.2514L341.909 99.3652L341.294 92.6763L362.006 90.6237C361.878 89.4005 361.488 88.338 360.835 87.4362C360.182 86.5344 359.337 85.8655 358.299 85.4296C357.276 84.9765 356.129 84.8129 354.858 84.9389C353.571 85.0664 352.444 85.4711 351.478 86.1532C350.51 86.8195 349.773 87.6768 349.268 88.7251C348.761 89.7577 348.549 90.8958 348.631 92.1393L349.257 98.946C349.392 100.422 349.801 101.689 350.484 102.746C351.166 103.787 352.068 104.562 353.192 105.068C354.315 105.575 355.614 105.755 357.089 105.609C358.109 105.508 359.022 105.275 359.827 104.91C360.633 104.545 361.309 104.058 361.854 103.449C362.4 102.841 362.785 102.121 363.01 101.291L373.606 100.55C373.384 102.964 372.609 105.124 371.28 107.031C369.965 108.92 368.152 110.47 365.841 111.682C363.528 112.877 360.795 113.631 357.641 113.944ZM67.2315 223.429L49.4144 225.195L44.9833 176.959L62.7768 175.196C67.6881 174.709 72.0055 175.256 75.7291 176.836C79.4669 178.398 82.4667 180.89 84.7284 184.31C86.9887 187.714 88.349 191.921 88.8091 196.93C89.2707 201.954 88.7023 206.368 87.1041 210.171C85.5216 213.972 83.0381 217.014 79.6536 219.299C76.2678 221.567 72.1271 222.944 67.2315 223.429ZM60.1519 214.101L65.8712 213.534C68.5701 213.267 70.8113 212.585 72.5948 211.49C74.3927 210.377 75.6749 208.736 76.4417 206.569C77.2227 204.384 77.4538 201.557 77.135 198.087C76.8163 194.617 76.076 191.901 74.9142 189.941C73.7509 187.965 72.1782 186.615 70.1959 185.893C68.2279 185.153 65.8631 184.92 63.1015 185.194L57.5469 185.744L60.1519 214.101ZM108.076 219.999C105.77 220.228 103.687 220.046 101.827 219.454C99.9821 218.845 98.4696 217.806 97.2898 216.339C96.1242 214.854 95.4317 212.918 95.2125 210.532C95.0279 208.522 95.2251 206.791 95.8043 205.339C96.3835 203.888 97.2532 202.669 98.4134 201.682C99.5737 200.696 100.942 199.903 102.517 199.303C104.092 198.687 105.79 198.21 107.611 197.871C109.649 197.479 111.287 197.119 112.523 196.79C113.758 196.446 114.64 196.049 115.169 195.601C115.712 195.135 115.95 194.533 115.882 193.795L115.871 193.678C115.76 192.468 115.258 191.575 114.366 190.998C113.474 190.421 112.322 190.203 110.91 190.343C109.388 190.494 108.194 190.945 107.329 191.696C106.464 192.447 105.959 193.416 105.815 194.603L95.165 195.278C95.2769 193.049 95.9047 191.006 97.0484 189.15C98.2063 187.276 99.8853 185.731 102.085 184.515C104.3 183.281 107.023 182.505 110.255 182.184C112.562 181.956 114.713 182.02 116.709 182.376C118.704 182.717 120.471 183.335 122.009 184.228C123.547 185.105 124.776 186.251 125.698 187.665C126.635 189.077 127.192 190.741 127.368 192.657L129.627 217.246L118.8 218.319L118.337 213.279L118.054 213.307C117.524 214.595 116.795 215.713 115.869 216.66C114.958 217.606 113.847 218.358 112.537 218.916C111.242 219.472 109.755 219.833 108.076 219.999ZM110.938 212.11C112.178 211.988 113.269 211.626 114.211 211.026C115.169 210.424 115.906 209.653 116.421 208.715C116.935 207.761 117.138 206.695 117.03 205.517L116.714 202.079C116.4 202.284 116.015 202.481 115.557 202.669C115.115 202.855 114.625 203.038 114.088 203.218C113.55 203.398 112.995 203.564 112.423 203.716C111.851 203.868 111.302 204.009 110.776 204.141C109.709 204.421 108.808 204.779 108.072 205.217C107.352 205.653 106.815 206.181 106.46 206.803C106.12 207.407 105.986 208.101 106.058 208.886C106.168 210.08 106.675 210.948 107.58 211.493C108.501 212.035 109.62 212.241 110.938 212.11ZM153.747 178.349L154.526 186.828L131.719 189.089L130.94 180.61L153.747 178.349ZM134.922 171.469L146.431 170.328L149.505 203.796C149.57 204.503 149.733 205.065 149.993 205.483C150.267 205.884 150.633 206.156 151.089 206.301C151.544 206.431 152.078 206.465 152.69 206.404C153.129 206.361 153.589 206.275 154.068 206.149C154.561 206.005 154.931 205.889 155.176 205.801L157.681 213.943C157.147 214.154 156.388 214.427 155.405 214.762C154.439 215.096 153.268 215.363 151.893 215.562C149.205 215.955 146.862 215.871 144.863 215.308C142.878 214.728 141.301 213.681 140.133 212.164C138.98 210.647 138.307 208.661 138.113 206.209L134.922 171.469ZM173.19 213.547C170.883 213.775 168.8 213.593 166.941 213.001C165.096 212.392 163.583 211.354 162.403 209.886C161.238 208.401 160.545 206.465 160.326 204.079C160.141 202.069 160.339 200.338 160.918 198.886C161.497 197.435 162.367 196.216 163.527 195.229C164.687 194.243 166.055 193.45 167.631 192.85C169.205 192.234 170.903 191.757 172.725 191.418C174.763 191.026 176.4 190.666 177.637 190.337C178.872 189.993 179.754 189.597 180.283 189.148C180.826 188.682 181.063 188.08 180.995 187.342L180.985 187.225C180.874 186.016 180.372 185.123 179.48 184.546C178.588 183.968 177.435 183.75 176.023 183.89C174.501 184.041 173.308 184.492 172.442 185.243C171.577 185.994 171.072 186.963 170.928 188.15L160.279 188.825C160.39 186.596 161.018 184.553 162.162 182.697C163.32 180.823 164.999 179.278 167.199 178.062C169.413 176.829 172.136 176.052 175.369 175.731C177.675 175.503 179.827 175.567 181.823 175.924C183.818 176.265 185.584 176.882 187.123 177.775C188.66 178.653 189.89 179.798 190.811 181.212C191.749 182.625 192.305 184.289 192.481 186.204L194.74 210.793L183.913 211.866L183.45 206.826L183.168 206.854C182.637 208.142 181.908 209.26 180.982 210.208C180.071 211.153 178.961 211.905 177.65 212.463C176.356 213.019 174.869 213.38 173.19 213.547ZM176.052 205.658C177.291 205.535 178.382 205.173 179.324 204.573C180.283 203.971 181.019 203.201 181.535 202.262C182.049 201.308 182.252 200.242 182.144 199.065L181.828 195.626C181.514 195.831 181.128 196.028 180.671 196.216C180.229 196.402 179.739 196.586 179.201 196.766C178.663 196.946 178.109 197.112 177.537 197.263C176.965 197.415 176.416 197.557 175.889 197.688C174.823 197.968 173.921 198.327 173.186 198.764C172.466 199.2 171.928 199.728 171.574 200.35C171.233 200.954 171.099 201.649 171.171 202.434C171.281 203.627 171.788 204.496 172.693 205.04C173.614 205.582 174.733 205.788 176.052 205.658ZM201.777 210.096L197.346 161.86L208.856 160.719L210.532 178.973L210.768 178.949C211.138 177.804 211.707 176.678 212.476 175.571C213.261 174.464 214.299 173.521 215.589 172.744C216.894 171.949 218.495 171.457 220.394 171.269C222.904 171.021 225.311 171.448 227.613 172.55C229.931 173.652 231.891 175.509 233.493 178.123C235.094 180.737 236.091 184.172 236.482 188.427C236.858 192.525 236.522 196.021 235.474 198.913C234.441 201.804 232.89 204.049 230.82 205.649C228.766 207.247 226.405 208.178 223.737 208.442C221.917 208.623 220.313 208.481 218.924 208.016C217.536 207.552 216.342 206.878 215.342 205.994C214.359 205.109 213.572 204.134 212.983 203.067L212.63 203.102L213.169 208.967L201.777 210.096ZM211.39 190.89C211.569 192.837 211.983 194.507 212.634 195.9C213.3 197.292 214.164 198.339 215.226 199.042C216.303 199.728 217.539 200.001 218.935 199.863C220.348 199.723 221.512 199.211 222.428 198.328C223.343 197.43 223.985 196.233 224.355 194.739C224.74 193.243 224.843 191.521 224.664 189.574C224.485 187.627 224.071 185.965 223.422 184.588C222.789 183.209 221.942 182.175 220.881 181.488C219.836 180.8 218.6 180.526 217.172 180.668C215.76 180.808 214.595 181.311 213.677 182.179C212.759 183.046 212.099 184.22 211.697 185.702C211.31 187.182 211.208 188.912 211.39 190.89ZM254.42 205.497C252.113 205.725 250.03 205.543 248.171 204.951C246.326 204.342 244.813 203.304 243.633 201.836C242.468 200.351 241.775 198.415 241.556 196.029C241.371 194.019 241.569 192.288 242.148 190.836C242.727 189.385 243.597 188.166 244.757 187.179C245.917 186.193 247.285 185.4 248.861 184.8C250.435 184.184 252.133 183.707 253.955 183.368C255.993 182.976 257.63 182.616 258.867 182.287C260.102 181.943 260.984 181.547 261.513 181.098C262.056 180.632 262.293 180.03 262.226 179.292L262.215 179.175C262.104 177.966 261.602 177.073 260.71 176.496C259.818 175.918 258.665 175.7 257.253 175.84C255.731 175.991 254.538 176.442 253.672 177.193C252.807 177.944 252.302 178.913 252.158 180.1L241.509 180.775C241.62 178.546 242.248 176.503 243.392 174.647C244.55 172.773 246.229 171.228 248.429 170.012C250.643 168.779 253.366 168.002 256.599 167.681C258.905 167.453 261.057 167.517 263.053 167.874C265.048 168.215 266.814 168.832 268.353 169.725C269.89 170.603 271.12 171.748 272.041 173.162C272.979 174.575 273.535 176.239 273.711 178.154L275.97 202.743L265.143 203.816L264.68 198.776L264.398 198.804C263.867 200.092 263.139 201.21 262.212 202.158C261.302 203.103 260.191 203.855 258.881 204.413C257.586 204.969 256.099 205.33 254.42 205.497ZM257.282 197.608C258.521 197.485 259.612 197.123 260.555 196.523C261.513 195.921 262.249 195.151 262.765 194.212C263.279 193.258 263.482 192.192 263.374 191.015L263.058 187.576C262.744 187.781 262.358 187.978 261.901 188.166C261.459 188.352 260.969 188.536 260.431 188.716C259.893 188.896 259.339 189.062 258.767 189.213C258.195 189.365 257.646 189.507 257.119 189.638C256.053 189.918 255.151 190.277 254.416 190.714C253.696 191.15 253.158 191.678 252.804 192.3C252.464 192.904 252.329 193.599 252.402 194.384C252.511 195.577 253.018 196.446 253.923 196.99C254.844 197.532 255.964 197.738 257.282 197.608ZM312.261 173.787L301.719 175.117C301.54 174.374 301.181 173.737 300.641 173.204C300.1 172.655 299.422 172.255 298.607 172.003C297.806 171.734 296.896 171.65 295.876 171.751C294.543 171.883 293.429 172.263 292.537 172.89C291.66 173.515 291.272 174.283 291.371 175.192C291.42 175.9 291.759 176.484 292.387 176.945C293.031 177.404 294.128 177.715 295.679 177.879L302.767 178.507C306.439 178.84 309.228 179.721 311.132 181.148C313.053 182.574 314.142 184.605 314.4 187.241C314.612 189.724 314.073 191.956 312.782 193.937C311.508 195.918 309.662 197.542 307.245 198.812C304.827 200.066 302.001 200.853 298.769 201.173C293.607 201.684 289.438 201.028 286.262 199.204C283.1 197.362 281.143 194.673 280.39 191.135L291.732 189.725C292.104 191.019 292.848 191.96 293.963 192.546C295.077 193.133 296.451 193.346 298.083 193.184C299.558 193.038 300.733 192.644 301.608 192.003C302.483 191.361 302.887 190.585 302.819 189.672C302.728 188.857 302.308 188.242 301.557 187.825C300.804 187.392 299.662 187.109 298.13 186.976L291.712 186.4C288.027 186.1 285.216 185.15 283.28 183.552C281.342 181.937 280.255 179.748 280.016 176.983C279.779 174.566 280.232 172.438 281.377 170.597C282.521 168.741 284.251 167.238 286.568 166.09C288.885 164.941 291.676 164.205 294.94 163.882C299.835 163.397 303.79 164.043 306.803 165.82C309.815 167.581 311.634 170.237 312.261 173.787ZM338.093 197.276C334.311 197.651 330.979 197.228 328.096 196.009C325.227 194.772 322.928 192.837 321.197 190.204C319.481 187.554 318.447 184.305 318.093 180.458C317.75 176.721 318.187 173.382 319.406 170.441C320.622 167.484 322.501 165.096 325.041 163.275C327.58 161.439 330.67 160.341 334.31 159.98C336.883 159.725 339.274 159.892 341.481 160.482C343.689 161.071 345.642 162.074 347.339 163.49C349.037 164.906 350.423 166.725 351.498 168.948C352.572 171.155 353.245 173.742 353.518 176.71L353.781 179.583L322.36 182.697L321.746 176.008L342.458 173.956C342.33 172.732 341.939 171.67 341.286 170.768C340.633 169.866 339.788 169.197 338.751 168.762C337.727 168.308 336.58 168.145 335.309 168.271C334.023 168.398 332.896 168.803 331.929 169.485C330.961 170.151 330.225 171.009 329.719 172.057C329.213 173.09 329 174.228 329.083 175.471L329.708 182.278C329.844 183.754 330.253 185.021 330.936 186.078C331.618 187.119 332.52 187.894 333.643 188.4C334.767 188.907 336.066 189.087 337.541 188.941C338.561 188.84 339.473 188.607 340.279 188.242C341.085 187.877 341.76 187.39 342.306 186.781C342.852 186.172 343.237 185.453 343.462 184.623L354.058 183.882C353.836 186.296 353.061 188.456 351.732 190.363C350.417 192.252 348.604 193.802 346.292 195.013C343.98 196.209 341.246 196.963 338.093 197.276Z" fill="white"/>
</svg>
